<svg width="532" height="333" viewBox="0 0 532 333" fill="none" xmlns="http://www.w3.org/2000/svg">
<path d="M182.884 151.091C182.884 170.918 179.125 187.786 171.609 201.695C164.151 215.603 153.971 226.227 141.069 233.566C128.226 240.846 113.784 244.486 97.745 244.486C81.5874 244.486 67.0869 240.816 54.2436 233.477C41.4003 226.138 31.25 215.514 23.7926 201.606C16.3352 187.697 12.6065 170.859 12.6065 151.091C12.6065 131.264 16.3352 114.396 23.7926 100.487C31.25 86.5786 41.4003 75.9844 54.2436 68.7045C67.0869 61.3655 81.5874 57.696 97.745 57.696C113.784 57.696 128.226 61.3655 141.069 68.7045C153.971 75.9844 164.151 86.5786 171.609 100.487C179.125 114.396 182.884 131.264 182.884 151.091ZM143.91 151.091C143.91 138.248 141.986 127.417 138.139 118.598C134.351 109.779 128.995 103.091 122.07 98.5341C115.146 93.9768 107.037 91.6982 97.745 91.6982C88.4529 91.6982 80.3445 93.9768 73.4197 98.5341C66.495 103.091 61.1091 109.779 57.2621 118.598C53.4742 127.417 51.5803 138.248 51.5803 151.091C51.5803 163.934 53.4742 174.765 57.2621 183.584C61.1091 192.402 66.495 199.09 73.4197 203.648C80.3445 208.205 88.4529 210.484 97.745 210.484C107.037 210.484 115.146 208.205 122.07 203.648C128.995 199.09 134.351 192.402 138.139 183.584C141.986 174.765 143.91 163.934 143.91 151.091ZM211.359 242V60.1818H249.8V140.349H252.197L317.627 60.1818H363.703L296.231 141.592L364.502 242H318.515L268.71 167.249L249.8 190.331V242H211.359ZM383.722 242V60.1818H455.455C469.186 60.1818 480.905 62.638 490.612 67.5504C500.377 72.4036 507.805 79.2988 512.895 88.2358C518.044 97.1136 520.619 107.56 520.619 119.575C520.619 131.648 518.015 142.036 512.806 150.736C507.598 159.377 500.052 166.006 490.168 170.622C480.343 175.239 468.447 177.547 454.479 177.547H406.45V146.652H448.264C455.603 146.652 461.7 145.646 466.553 143.634C471.406 141.621 475.016 138.603 477.384 134.578C479.81 130.554 481.024 125.552 481.024 119.575C481.024 113.538 479.81 108.448 477.384 104.305C475.016 100.162 471.376 97.0248 466.464 94.8942C461.611 92.7043 455.485 91.6094 448.087 91.6094H422.164V242H383.722ZM481.911 159.259L527.1 242H484.664L440.452 159.259H481.911Z" fill="#D9D9D9"/>
<path d="M202.196 301.894L195.41 302.312C195.294 301.732 195.044 301.21 194.662 300.746C194.279 300.27 193.774 299.893 193.148 299.615C192.533 299.325 191.796 299.18 190.938 299.18C189.789 299.18 188.821 299.423 188.032 299.911C187.243 300.386 186.849 301.024 186.849 301.825C186.849 302.463 187.104 303.002 187.614 303.443C188.125 303.884 189.001 304.237 190.242 304.504L195.079 305.479C197.678 306.012 199.615 306.871 200.891 308.054C202.167 309.237 202.805 310.792 202.805 312.717C202.805 314.469 202.289 316.006 201.256 317.328C200.236 318.651 198.832 319.683 197.045 320.426C195.271 321.157 193.223 321.522 190.903 321.522C187.365 321.522 184.546 320.785 182.446 319.312C180.358 317.827 179.134 315.809 178.775 313.257L186.066 312.874C186.286 313.953 186.82 314.776 187.667 315.345C188.513 315.902 189.598 316.18 190.92 316.18C192.22 316.18 193.264 315.931 194.053 315.432C194.853 314.921 195.259 314.266 195.271 313.466C195.259 312.793 194.975 312.242 194.418 311.812C193.861 311.372 193.003 311.035 191.843 310.803L187.214 309.881C184.604 309.359 182.661 308.454 181.385 307.167C180.121 305.879 179.488 304.237 179.488 302.242C179.488 300.525 179.952 299.046 180.88 297.805C181.82 296.564 183.137 295.607 184.83 294.934C186.536 294.261 188.531 293.925 190.816 293.925C194.192 293.925 196.848 294.638 198.786 296.065C200.734 297.492 201.871 299.435 202.196 301.894ZM212.049 331.023C211.109 331.023 210.228 330.947 209.404 330.797C208.592 330.657 207.919 330.478 207.386 330.257L209.056 324.724C209.926 324.991 210.709 325.136 211.405 325.159C212.113 325.182 212.722 325.02 213.232 324.672C213.754 324.324 214.178 323.732 214.503 322.897L214.938 321.766L205.35 294.273H213.145L218.679 313.901H218.957L224.543 294.273H232.39L222.002 323.888C221.503 325.327 220.825 326.58 219.966 327.647C219.12 328.726 218.046 329.555 216.747 330.135C215.448 330.727 213.882 331.023 212.049 331.023ZM258.422 301.894L251.635 302.312C251.519 301.732 251.27 301.21 250.887 300.746C250.504 300.27 250 299.893 249.373 299.615C248.758 299.325 248.022 299.18 247.163 299.18C246.015 299.18 245.046 299.423 244.258 299.911C243.469 300.386 243.074 301.024 243.074 301.825C243.074 302.463 243.33 303.002 243.84 303.443C244.35 303.884 245.226 304.237 246.467 304.504L251.305 305.479C253.903 306.012 255.841 306.871 257.117 308.054C258.393 309.237 259.031 310.792 259.031 312.717C259.031 314.469 258.514 316.006 257.482 317.328C256.461 318.651 255.058 319.683 253.271 320.426C251.496 321.157 249.449 321.522 247.129 321.522C243.591 321.522 240.772 320.785 238.672 319.312C236.584 317.827 235.36 315.809 235 313.257L242.291 312.874C242.512 313.953 243.045 314.776 243.892 315.345C244.739 315.902 245.824 316.18 247.146 316.18C248.445 316.18 249.489 315.931 250.278 315.432C251.079 314.921 251.485 314.266 251.496 313.466C251.485 312.793 251.2 312.242 250.644 311.812C250.087 311.372 249.228 311.035 248.068 310.803L243.44 309.881C240.83 309.359 238.887 308.454 237.611 307.167C236.346 305.879 235.714 304.237 235.714 302.242C235.714 300.525 236.178 299.046 237.106 297.805C238.046 296.564 239.362 295.607 241.056 294.934C242.761 294.261 244.756 293.925 247.042 293.925C250.417 293.925 253.074 294.638 255.011 296.065C256.96 297.492 258.097 299.435 258.422 301.894ZM277.915 294.273V299.841H261.819V294.273H277.915ZM265.473 287.869H272.886V312.787C272.886 313.471 272.99 314.005 273.199 314.388C273.408 314.759 273.698 315.02 274.069 315.171C274.452 315.322 274.893 315.397 275.392 315.397C275.74 315.397 276.088 315.368 276.436 315.31C276.784 315.24 277.05 315.188 277.236 315.153L278.402 320.669C278.031 320.785 277.509 320.919 276.836 321.07C276.163 321.232 275.345 321.331 274.382 321.365C272.596 321.435 271.03 321.197 269.684 320.652C268.35 320.107 267.312 319.26 266.569 318.112C265.827 316.963 265.462 315.513 265.473 313.761V287.869ZM294.637 321.522C291.887 321.522 289.521 320.965 287.537 319.852C285.565 318.726 284.045 317.137 282.978 315.084C281.911 313.019 281.377 310.577 281.377 307.758C281.377 305.009 281.911 302.596 282.978 300.52C284.045 298.443 285.548 296.825 287.485 295.665C289.434 294.505 291.719 293.925 294.341 293.925C296.104 293.925 297.745 294.209 299.265 294.777C300.796 295.334 302.13 296.175 303.267 297.3C304.416 298.426 305.309 299.841 305.947 301.546C306.585 303.24 306.904 305.223 306.904 307.497V309.533H284.335V304.939H299.926C299.926 303.872 299.694 302.927 299.23 302.103C298.766 301.279 298.122 300.636 297.299 300.172C296.487 299.696 295.541 299.458 294.463 299.458C293.337 299.458 292.34 299.719 291.47 300.241C290.611 300.752 289.938 301.442 289.451 302.312C288.964 303.17 288.715 304.127 288.703 305.183V309.55C288.703 310.873 288.947 312.016 289.434 312.978C289.933 313.941 290.634 314.684 291.539 315.206C292.444 315.728 293.517 315.989 294.758 315.989C295.582 315.989 296.336 315.873 297.02 315.641C297.705 315.409 298.291 315.061 298.778 314.597C299.265 314.133 299.636 313.564 299.892 312.891L306.747 313.344C306.399 314.991 305.686 316.429 304.607 317.659C303.54 318.877 302.159 319.828 300.466 320.513C298.784 321.186 296.841 321.522 294.637 321.522ZM311.741 321V294.273H318.806V298.988H319.119C319.676 297.422 320.604 296.187 321.903 295.282C323.202 294.377 324.757 293.925 326.567 293.925C328.399 293.925 329.96 294.383 331.247 295.299C332.535 296.204 333.393 297.434 333.823 298.988H334.101C334.646 297.457 335.632 296.233 337.059 295.317C338.498 294.389 340.197 293.925 342.157 293.925C344.652 293.925 346.676 294.719 348.23 296.309C349.796 297.886 350.579 300.125 350.579 303.025V321H343.184V304.487C343.184 303.002 342.79 301.888 342.001 301.146C341.212 300.404 340.226 300.032 339.043 300.032C337.697 300.032 336.647 300.462 335.893 301.32C335.139 302.167 334.762 303.286 334.762 304.678V321H327.576V304.33C327.576 303.019 327.199 301.975 326.445 301.198C325.702 300.421 324.722 300.032 323.504 300.032C322.68 300.032 321.938 300.241 321.277 300.659C320.627 301.065 320.111 301.639 319.728 302.381C319.345 303.112 319.154 303.971 319.154 304.957V321H311.741Z" fill="#D9D9D9"/>
</svg>
